<?xml version="1.0" standalone="no"?>
<!DOCTYPE svg PUBLIC "-//W3C//DTD SVG 20010904//EN"
 "http://www.w3.org/TR/2001/REC-SVG-20010904/DTD/svg10.dtd">
<svg version="1.0" xmlns="http://www.w3.org/2000/svg"
 width="1617.000000pt" height="1055.000000pt" viewBox="0 0 1617.000000 1055.000000"
 preserveAspectRatio="xMidYMid meet">

<g transform="translate(0.000000,1055.000000) scale(0.100000,-0.100000)"
fill="#000000" stroke="none">
<path d="M3793 6520 c-44 -27 -62 -84 -39 -128 9 -18 28 -39 41 -48 l25 -16 0
-233 0 -233 -37 -23 c-21 -13 -57 -41 -80 -63 l-43 -39 0 190 0 189 31 23 c41
30 53 66 40 112 -29 97 -178 91 -197 -7 -8 -45 11 -91 47 -110 l29 -15 0 -204
0 -205 -315 0 -315 0 0 190 0 189 28 15 c58 30 69 110 23 157 -57 56 -149 35
-172 -40 -13 -46 -1 -82 40 -112 l31 -23 0 -203 c0 -190 1 -203 19 -213 12 -6
140 -10 343 -10 286 -1 321 -2 304 -15 -11 -8 -33 -15 -49 -15 -47 0 -139 -50
-194 -107 l-52 -53 -96 0 c-52 0 -95 4 -95 9 0 5 -14 23 -31 40 -24 24 -39 31
-71 31 -120 0 -136 -179 -18 -205 37 -8 94 18 108 50 11 24 16 25 98 25 85 0
86 0 79 -22 -4 -13 -9 -49 -12 -80 l-5 -58 -177 0 -176 0 -28 35 c-48 60 -128
57 -167 -7 -15 -23 -19 -43 -16 -67 14 -95 141 -122 190 -41 l17 30 178 0 178
0 12 -42 c7 -24 24 -60 37 -80 l24 -38 -107 0 -108 0 -27 34 c-32 40 -78 51
-124 29 -94 -43 -60 -193 44 -193 43 0 87 27 97 60 6 19 16 20 142 20 120 0
138 -2 164 -20 36 -26 133 -60 171 -60 l28 0 0 -205 0 -205 -188 0 -189 0 -11
24 c-28 62 -113 78 -162 31 -66 -63 -22 -175 68 -175 43 0 87 27 97 60 6 19
18 20 218 22 l212 3 3 223 2 222 95 0 95 0 0 -130 0 -131 -40 -38 c-50 -47
-54 -92 -14 -140 50 -60 140 -46 171 26 19 46 10 79 -33 119 l-34 33 0 130 0
131 80 0 80 0 0 -243 0 -244 -25 -11 c-33 -15 -60 -72 -51 -107 4 -15 20 -40
36 -56 67 -68 182 -7 167 88 -7 38 -41 83 -64 83 -10 0 -13 48 -13 245 l0 246
83 -3 82 -3 3 -132 3 -132 -30 -16 c-37 -19 -51 -43 -51 -90 0 -50 15 -74 57
-91 46 -20 86 -10 118 28 41 49 26 130 -29 156 l-26 12 0 133 0 134 88 6 c103
7 141 21 204 76 l46 41 186 0 186 0 0 -188 0 -188 -29 -17 c-60 -35 -62 -121
-3 -167 80 -64 195 37 147 129 -9 18 -27 37 -40 43 l-25 11 0 208 c0 179 -2
208 -16 213 -9 3 -99 6 -201 6 -173 0 -185 1 -177 18 4 9 9 52 12 95 l4 77 73
0 c66 0 74 -2 80 -21 8 -25 61 -59 92 -59 84 0 133 99 82 164 -44 56 -114 54
-163 -5 -24 -28 -28 -29 -106 -29 l-81 0 -20 35 c-23 38 -97 96 -144 113 -22
8 43 11 260 11 l290 1 10 -22 c16 -36 73 -60 117 -48 44 13 68 47 68 99 0 61
-35 96 -95 96 -42 0 -51 -4 -80 -37 l-32 -38 -310 0 -311 0 -6 34 c-4 18 -17
54 -30 80 -13 25 -21 48 -18 51 3 3 107 5 230 5 l225 0 37 -40 c32 -35 43 -40
79 -40 34 0 49 6 72 29 63 64 20 171 -69 171 -43 0 -87 -27 -97 -60 -6 -20
-14 -20 -268 -18 l-262 3 0 275 0 275 186 3 187 2 20 -34 c61 -103 219 -34
182 80 -28 82 -117 98 -176 30 l-31 -36 -207 0 -206 0 0 -263 c0 -145 -3 -266
-6 -269 -3 -4 -21 4 -39 17 -19 12 -61 31 -95 41 l-60 18 0 112 c0 103 2 113
20 119 33 10 60 54 60 97 0 30 -7 46 -29 69 -65 65 -171 20 -171 -72 0 -36 5
-47 40 -79 l41 -38 -3 -98 -3 -99 -63 -7 c-34 -4 -72 -10 -82 -13 -19 -6 -20
-1 -20 215 l0 221 40 38 c32 30 40 45 40 72 0 41 -21 74 -60 94 -38 20 -59 19
-97 -5z m89 -47 c22 -20 23 -51 1 -75 -20 -22 -51 -23 -75 -1 -24 21 -23 48 2
73 24 24 47 25 72 3z m963 -113 c41 -46 -29 -116 -75 -75 -24 22 -26 58 -4 79
21 22 57 20 79 -4z m-1167 -108 c39 -50 -37 -111 -82 -66 -23 22 -20 60 6 78
25 18 56 13 76 -12z m410 12 c24 -17 30 -62 10 -82 -37 -37 -113 12 -89 57 10
18 37 40 51 41 3 0 16 -7 28 -16z m-1100 -30 c26 -18 28 -50 5 -76 -32 -35
-93 -10 -93 38 0 22 33 54 55 54 6 0 21 -7 33 -16z m1134 -405 c149 -50 249
-172 272 -330 7 -45 8 -47 49 -53 209 -34 287 -278 133 -414 -68 -59 -94 -62
-565 -62 -466 0 -499 4 -575 57 -164 116 -178 351 -29 482 50 45 135 81 188
81 30 0 37 5 56 41 23 46 87 119 132 151 47 34 157 68 220 68 32 0 84 -9 119
-21z m873 -73 c19 -28 9 -58 -26 -76 -45 -25 -94 51 -57 88 21 21 66 14 83
-12z m210 -206 c25 -27 10 -71 -27 -84 -51 -18 -91 50 -52 88 21 22 57 20 79
-4z m-2157 -62 c7 -7 12 -24 12 -38 0 -34 -17 -50 -52 -50 -18 0 -33 8 -44 25
-15 23 -15 27 0 50 18 27 63 34 84 13z m1928 -136 c6 -4 16 -17 23 -30 18 -33
-9 -72 -48 -72 -49 0 -70 46 -40 84 20 26 44 32 65 18z m-2141 -82 c37 -41
-14 -107 -64 -81 -47 26 -30 101 24 101 12 0 30 -9 40 -20z m207 -207 c22 -20
23 -56 2 -77 -32 -33 -86 -9 -86 39 0 48 48 70 84 38z m2056 -466 c19 -14 14
-62 -8 -82 -38 -35 -99 7 -86 59 10 39 58 51 94 23z m-1188 -17 c24 -24 25
-47 3 -72 -20 -22 -51 -23 -75 -1 -22 20 -23 51 -1 75 21 24 48 23 73 -2z
m424 4 c23 -22 20 -71 -3 -84 -31 -16 -59 -12 -75 12 -21 30 -20 44 4 68 24
24 53 26 74 4z m-1176 -50 c24 -17 30 -62 10 -82 -37 -37 -113 12 -89 57 10
18 37 40 51 41 3 0 16 -7 28 -16z m960 -160 c40 -28 19 -94 -30 -94 -27 0 -58
28 -58 52 0 21 34 58 53 58 7 0 23 -7 35 -16z"/>
<path d="M6050 6411 c-76 -23 -136 -78 -172 -156 -23 -49 -23 -56 -26 -470 -4
-464 1 -524 48 -599 60 -94 151 -132 294 -124 92 6 144 27 196 80 73 73 92
176 88 478 l-3 195 -147 3 -148 3 0 -95 0 -95 48 -3 47 -3 0 -152 c0 -138 -2
-154 -21 -180 -45 -59 -145 -56 -176 7 -16 32 -18 75 -18 443 0 435 2 451 49
477 33 17 96 12 124 -10 34 -27 47 -76 47 -172 l0 -78 101 0 102 0 -7 110
c-12 191 -48 265 -157 319 -57 28 -70 31 -153 30 -50 0 -102 -4 -116 -8z"/>
<path d="M7437 6406 c-88 -32 -142 -86 -177 -176 -19 -47 -27 -822 -10 -919
19 -111 71 -184 160 -225 65 -30 235 -30 300 0 60 28 108 77 139 144 l26 55 0
455 0 455 -28 60 c-35 74 -58 100 -122 133 -42 22 -66 26 -150 29 -68 2 -112
-1 -138 -11z m188 -192 c13 -8 28 -29 34 -46 7 -20 11 -171 11 -428 0 -257 -4
-408 -11 -428 -19 -55 -91 -79 -153 -51 -53 24 -56 54 -56 485 0 427 2 448 53
472 33 16 95 14 122 -4z"/>
<path d="M10400 6411 c-81 -26 -145 -88 -176 -167 -18 -46 -19 -82 -19 -509
l0 -460 24 -53 c52 -115 156 -168 311 -160 103 6 150 27 209 94 65 74 71 108
71 406 l0 258 -145 0 -145 0 0 -94 0 -95 48 -3 47 -3 0 -152 c0 -138 -2 -154
-21 -180 -42 -56 -140 -57 -175 0 -18 31 -19 49 -17 460 l3 429 28 24 c20 17
40 24 72 24 83 0 114 -53 115 -197 l0 -73 95 0 95 0 0 108 c0 175 -38 260
-141 317 -48 26 -65 30 -154 32 -55 1 -111 -1 -125 -6z"/>
<path d="M6610 5740 l0 -670 280 0 280 0 0 95 0 95 -175 0 -175 0 0 575 0 575
-105 0 -105 0 0 -670z"/>
<path d="M8020 5739 l0 -671 213 4 c196 3 216 6 264 27 69 31 127 95 147 162
25 82 22 312 -4 382 -20 52 -63 103 -108 126 -23 12 -23 12 16 41 22 16 50 49
63 77 22 44 24 60 24 193 0 142 -1 146 -30 199 -35 63 -92 104 -166 120 -28 6
-133 11 -234 11 l-185 0 0 -671z m349 470 c48 -17 61 -52 61 -166 0 -58 -5
-108 -13 -123 -17 -35 -73 -60 -134 -60 l-53 0 0 180 0 180 54 0 c29 0 67 -5
85 -11z m42 -567 c25 -23 32 -37 37 -87 4 -33 5 -102 2 -152 -7 -124 -17 -135
-135 -141 l-85 -5 0 207 0 206 75 0 c67 0 78 -3 106 -28z"/>
<path d="M8946 6383 c-10 -50 -206 -1283 -206 -1298 0 -12 17 -15 94 -15 l93
0 19 123 19 122 127 3 c146 3 128 17 148 -118 6 -41 13 -87 16 -102 l6 -28
104 0 c57 0 104 1 104 3 0 2 -47 298 -105 658 -58 360 -105 660 -105 667 0 9
-38 12 -154 12 l-154 0 -6 -27z m200 -557 c24 -164 44 -307 44 -317 0 -17 -9
-19 -94 -19 -52 0 -97 3 -99 8 -4 5 87 648 94 672 3 8 7 -20 55 -344z"/>
<path d="M9570 5740 l0 -670 275 0 275 0 0 95 0 95 -170 0 -170 0 0 575 0 575
-105 0 -105 0 0 -670z"/>
<path d="M10960 5740 l0 -670 105 0 105 0 0 670 0 670 -105 0 -105 0 0 -670z"/>
<path d="M11320 5740 l0 -670 95 0 95 0 2 485 3 484 129 -484 129 -485 109 0
108 0 0 670 0 670 -95 0 -95 0 -1 -402 0 -403 -107 403 -107 402 -132 0 -133
0 0 -670z"/>
<path d="M12140 5740 l0 -670 285 0 285 0 0 95 0 95 -180 0 -180 0 0 200 0
200 145 0 145 0 0 90 0 90 -145 0 -145 0 0 190 0 190 180 0 180 0 0 95 0 95
-285 0 -285 0 0 -670z"/>
<path d="M12840 5740 l0 -670 285 0 285 0 0 95 0 95 -180 0 -180 0 2 198 3
197 143 3 142 3 0 89 0 89 -142 3 -143 3 -3 188 -2 187 180 0 180 0 0 95 0 95
-285 0 -285 0 0 -670z"/>
<path d="M5850 4740 c0 -28 3 -30 35 -30 l35 0 0 -186 0 -185 33 3 32 3 3 183
2 182 36 0 c33 0 35 2 32 28 l-3 27 -102 3 -103 3 0 -31z"/>
<path d="M6360 4555 l0 -215 90 0 90 0 0 30 c0 30 -1 30 -55 30 l-55 0 0 65 0
65 45 0 c43 0 45 1 45 30 0 29 -2 30 -45 30 l-45 0 0 60 0 60 55 0 c54 0 55 0
55 30 l0 30 -90 0 -90 0 0 -215z"/>
<path d="M6883 4746 l-28 -24 0 -167 0 -167 28 -24 c35 -30 104 -33 138 -5 18
14 23 31 27 80 l4 61 -31 0 c-29 0 -31 -2 -31 -37 0 -49 -12 -66 -41 -61 -24
3 -24 4 -27 144 -2 120 0 143 14 154 24 21 48 0 52 -44 3 -33 6 -36 33 -36 27
0 29 2 29 40 0 21 -5 50 -11 63 -23 51 -109 63 -156 23z"/>
<path d="M7370 4555 l0 -215 30 0 29 0 3 93 3 92 38 3 37 3 0 -95 0 -96 35 0
35 0 0 215 0 215 -35 0 -35 0 0 -96 0 -95 -37 3 -38 3 -3 93 -3 92 -29 0 -30
0 0 -215z"/>
<path d="M7900 4556 l0 -216 30 0 29 0 3 151 3 151 40 -149 40 -148 33 -3 32
-3 0 216 0 216 -27 -3 -28 -3 -5 -115 -5 -114 -30 114 -30 115 -42 3 -43 3 0
-215z"/>
<path d="M8463 4746 c-28 -24 -28 -25 -31 -162 -4 -159 1 -197 30 -224 33 -30
111 -28 143 5 24 23 25 28 25 179 0 92 -4 165 -11 179 -23 51 -109 63 -156 23z
m97 -56 c6 -12 9 -70 8 -146 -2 -104 -6 -129 -19 -137 -9 -6 -24 -7 -33 -4
-14 6 -16 26 -16 150 0 79 3 147 7 150 13 14 43 6 53 -13z"/>
<path d="M8950 4555 l0 -215 90 0 90 0 0 30 c0 30 -1 30 -55 30 l-55 0 0 185
0 185 -35 0 -35 0 0 -215z"/>
<path d="M9473 4760 c-38 -15 -43 -42 -43 -210 0 -158 1 -161 25 -185 34 -35
102 -35 142 -1 l28 24 0 167 0 167 -28 24 c-30 25 -81 31 -124 14z m82 -205
c0 -136 -2 -150 -18 -153 -40 -8 -47 14 -47 152 0 139 6 159 45 154 19 -3 20
-10 20 -153z"/>
<path d="M9973 4746 l-28 -24 0 -165 c0 -161 1 -166 24 -191 20 -21 34 -26 70
-26 80 1 101 33 101 154 l0 86 -45 0 c-43 0 -45 -1 -45 -30 0 -20 5 -30 15
-30 11 0 15 -12 15 -47 0 -59 -10 -76 -41 -71 -24 3 -24 4 -27 151 -2 130 -1
148 14 154 27 10 49 -11 52 -51 3 -33 6 -36 33 -36 28 0 29 2 29 46 0 37 -5
51 -29 75 -39 38 -97 40 -138 5z"/>
<path d="M10430 4764 c0 -3 18 -65 40 -138 32 -105 40 -148 40 -209 l0 -77 35
0 35 0 0 73 c0 55 9 104 40 207 22 74 40 138 40 143 0 4 -13 7 -30 7 -32 0
-31 2 -61 -125 -6 -27 -15 -53 -18 -58 -4 -4 -17 36 -30 88 l-23 95 -34 0
c-19 0 -34 -3 -34 -6z"/>
</g>
</svg>
